<?xml version="1.0" encoding="utf-8"?>
<!-- Generator: Adobe Illustrator 23.0.3, SVG Export Plug-In . SVG Version: 6.00 Build 0)  -->
<svg version="1.1" id="Calque_1" xmlns="http://www.w3.org/2000/svg" xmlns:xlink="http://www.w3.org/1999/xlink" x="0px" y="0px"
	 viewBox="0 0 199 73.3" style="enable-background:new 0 0 199 73.3;" xml:space="preserve">
<style type="text/css">
	.st0{fill-rule:evenodd;clip-rule:evenodd;fill:#49494A;}
	.st1{fill-rule:evenodd;clip-rule:evenodd;fill:#D90000;}
</style>
<g id="Page-1">
	<g id="Group">
		<path id="Fill-1" class="st0" d="M108.7,66.8c-1.4,0-2.5-1.2-2.5-2.6c0-1.4,1.1-2.6,2.5-2.6c1.4,0,2.5,1.2,2.5,2.6
			C111.2,65.6,110.1,66.8,108.7,66.8L108.7,66.8z M111.2,59.7v0.9c-0.4-0.5-1.5-1.1-2.8-1.1c-2.2,0-4.4,1.9-4.5,4.4
			c0,0.1,0,0.2,0,0.2c0,0.1,0,0.2,0,0.2c0.1,2.5,2.3,4.4,4.5,4.4c1.3,0,2.4-0.6,2.8-1.1v0.9h2.4v-8.9H111.2z M89.1,66.8
			c-1.4,0-2.5-1.2-2.5-2.6c0-1.4,1.1-2.6,2.5-2.6c1.4,0,2.5,1.2,2.5,2.6C91.6,65.6,90.5,66.8,89.1,66.8L89.1,66.8z M91.6,59.7v0.9
			c-0.4-0.5-1.5-1.1-2.8-1.1c-2.2,0-4.4,1.9-4.5,4.4c0,0.1,0,0.2,0,0.2c0,0.1,0,0.2,0,0.2c0.1,2.5,2.3,4.4,4.5,4.4
			c1.3,0,2.4-0.6,2.8-1.1v0.9H94v-8.9H91.6z M95.9,68.6h2.3V55.9h-2.3V68.6z M125.2,58.2h2.3v-2.3h-2.3V58.2z M125.2,68.6h2.3v-8.9
			h-2.3V68.6z M100.2,58.2h2.3v-2.3h-2.3V58.2z M100.2,68.6h2.3v-8.9h-2.3V68.6z M130.7,65.9c0.3,0.7,0.8,1.1,1.7,1.1
			c0.6,0,1.1-0.3,1.1-0.8c0-0.6-0.3-0.8-1.6-1.3c-1.6-0.6-2.6-1.5-2.6-2.8c0-1.5,1.1-2.6,3-2.6c1.9,0,3,0.8,3.3,2.1l-1.7,0.7
			c-0.2-0.7-0.7-1.1-1.4-1.1c-0.6,0-0.9,0.3-0.9,0.7c0,0.5,0.4,0.7,1.5,1.1c1.6,0.7,2.7,1.5,2.7,3c0,1.3-1,2.7-3.3,2.7
			c-1.7,0-3.1-0.8-3.4-2.2L130.7,65.9z M118,63.9l-3-4.3h2.7l1.9,2.6l1.8-2.6h2.5l-3,4.4l3.2,4.5h-2.7l-2-2.9l-1.9,2.9h-2.5
			L118,63.9z M81.4,59.7l-3.6,9.5c-0.7,2-2.1,3.1-4,3v-1.4c1.2,0.1,1.9-0.6,2.4-1.8l0.2-0.3l-3.9-8.9h1.7l3,7l2.6-7H81.4z
			 M70.8,64.1c0-1.8-1.4-3.2-3.2-3.2c-1.8,0-3.2,1.4-3.2,3.2c0,1.8,1.4,3.2,3.2,3.2C69.5,67.3,70.8,66,70.8,64.1L70.8,64.1z
			 M72.4,64.1c0,2.6-2,4.7-4.5,4.7c-1.5,0-2.7-0.7-3.4-1.8v1.5H63V56.3h1.6v5c0.7-1.1,1.9-1.8,3.4-1.8
			C70.4,59.5,72.4,61.5,72.4,64.1L72.4,64.1z"/>
		<g id="Group-2">
			<polygon id="Fill-3" class="st1" points="83.2,2.5 78.8,10.2 87.5,10.2 91.8,2.5 			"/>
			<g id="Group-8" transform="translate(0.000000, -0.000000)">
				<path id="Fill-4" class="st1" d="M167.4,15c2.8-2,4.2-0.5,2.8,2.9c-0.6,1.4-3.7,7-8.8,9.8C161.1,20.3,166.3,15.7,167.4,15
					 M124.6,34c-3.4,2.6-7.5,0.9-8.4-1c-1.7-3.3,0.9-7.2,4.6-7.8c1.7-0.3,2.7,0.6,2.8,1.8c-2.5,1.4-1.9,4.3,2.1,6
					C125.3,33.4,125,33.7,124.6,34 M148,13.9c2.8-2,3.8-1,2.5,2.5c-0.5,1.3-3.3,5.2-8.6,7.6C143.3,17.5,147,14.6,148,13.9
					 M187.2,34.7c-3.9-1.1-3.8-2.4-11.8-0.7c-8,1.8-13,0.8-13.1-3.6c2.6-2.9,7.9-7.5,12.1-17.1c4.2-9.6-1-6.6-5.9-2.7
					c-4.9,3.9-12.5,15.9-14,22.8c-4.6,1.3-13.5,4.2-13.5-4.4c5.3-3.9,12.9-12.3,15.4-18.7c2.1-5.6-3-3.7-5.6-1.6
					c-7.7,6.4-10.2,9.9-13.6,18.4c-1.9,1-3.8,1.5-5.4,0.5c0-0.6,0.1-1.3,0.1-2c0.1-5.6-5.5-8.8-12.2-5.8c-5.4,2.4-9.7,7.9-10.3,14.1
					c-2,1-4.8,1.9-10.2,1.9c-11,0-7.7-13.9,2.2-9.5l4.7-5.7c-3.4-3-7.4-3-11.1-1.3c-4.8,2.2-9.7,7.9-10.6,13.8
					c-6.9,3.4-10.7,0.2-8.2-3.8c1.6-2.6,5.1-8.3,6.9-11.9h-8.7c-3.9,6.8-14.5,14.1-22.5,15.2L51,34.6c3.2,0.6,6.5,1,13.1-1.3
					c-6.9,13.6,6,10.3,8.6,9.2c2.2-0.9,6.4-3,11.5-5.7c0.1,0.7,0.2,1.4,0.5,2c2.7,7.8,11.7,3.9,14.5,2.7c1.8-0.8,6.5-3.2,10.1-5.2
					c0.1,0.9,0.2,1.8,0.4,2.7c1.3,4.9,8.5,7.3,14.8,2.1c3.6-3,5.7-5.9,6.6-9.7c1.2,0.2,2.4,0.3,4.5,0.1c-0.4,2.2-0.8,4.6-0.7,7.2
					c0.9,11.8,16.6,1.4,19-0.8c2.9,7.9,8.4,7,13.6,4c3.7-2.1,8.1-2.2,11-0.8c4.6,2.2,7.9,2.4,12,2.4l4.7-8
					C192.4,35.6,190.6,35.7,187.2,34.7"/>
				<path id="Fill-6" class="st1" d="M33.9,15.2c2.2-7.7,5.6-3.6,5.1-0.1c-0.4,2.9-1.3,4.3-4,7.4C33.8,20.1,33.2,17.4,33.9,15.2
					L33.9,15.2z M78.2,2.2c-17.8,0-28.3,10-38.5,25.2c-1.3-0.7-2.5-1.8-3.4-3.1c0,0,0,0,0,0c3.5-4.8,5.1-9.6,6.1-15.4
					c1.5-8.2-2.3-8.2-7.5-2c-3.2,3.8-5.7,11.5-4.7,19.7c-5.6,3.2-13.2,4-19,2l-7.9,13c9.5,1.5,20.4-1.6,28-10
					c1.1,3.6,3.1,7.1,6.1,10.3c3.3-4.7,10.7-25.4,32.1-25.4L78.2,2.2z"/>
			</g>
		</g>
	</g>
</g>
</svg>
